# xmcd
#
# Track frame offsets: 
#        150
#        14240
#        26783
#        40619
#        57266
#        67312
#        81416
#        97350
#        114839
#        128722
#        146197
#        164166
#        183949
#        201111
#        213998
#
# Disc length: 2969 seconds
#
# Revision: 0
# Processed by: cddbd v1.5.2PL0 Copyright (c) Steve Scherf et al.
# Submitted via: ExactAudioCopy v0.99pb4
#
DISCID=ea0b970f
DTITLE=Josef Rempfler - s'Appezöller Echo macht uf
DYEAR=2000
DGENRE=Ethnic
TTITLE0=s'Appezöller Echo macht uf
TTITLE1=i de Radarfalle
TTITLE2=Geburtstag
TTITLE3=Obedröti am Alpstee
TTITLE4=de Beni bim Stege schale
TTITLE5=Seealp retour
TTITLE6=s'Franze Johanns
TTITLE7=es Föxelet
TTITLE8=a de Schluss-Stobete im Rössli z'Appezöll
TTITLE9=s'isch Vollmond
TTITLE10=de Jubiläumspolka
TTITLE11=s'Brülisauer's Hochzig Ruggusserli, de Chochi-Bode Walzer
TTITLE12=Gruss an Sedona
TTITLE13=Mit em «Tramper» ondewegs
TTITLE14=Appezöller Grüess
EXTD=
EXTT0=
EXTT1=
EXTT2=
EXTT3=
EXTT4=
EXTT5=
EXTT6=
EXTT7=
EXTT8=
EXTT9=
EXTT10=
EXTT11=
EXTT12=
EXTT13=
EXTT14=
PLAYORDER=
